# xmcd
#
# Track frame offsets:
#	150
#	14164
#	43313
#	67079
#	86099
#	119863
#	136639
#	153699
#	170011
#	196092
#	217909
#	233908
#
# Disc length: 3312 seconds
#
# Revision: 1
# Processed by: cddbd v1.5.2PL0 Copyright (c) Steve Scherf et al.
# Submitted via: audiograbber 1.83.01
#
DISCID=b40cee0c
DTITLE=Peter Thorup - Blues Portrait - CD1
DYEAR=2007
DGENRE=Blues
TTITLE0=16 Tons
TTITLE1=Chica Boom
TTITLE2=Suppose
TTITLE3=Keep Movin'
TTITLE4=Farmen
TTITLE5=Let Me Take You Home
TTITLE6=Gospel Ship
TTITLE7=Help Me
TTITLE8=A-minor Blues
TTITLE9=Wild Injun Woman
TTITLE10=Lies
TTITLE11=Sneakin'
EXTD=
EXTT0=
EXTT1=
EXTT2=
EXTT3=
EXTT4=
EXTT5=
EXTT6=
EXTT7=
EXTT8=
EXTT9=
EXTT10=
EXTT11=
PLAYORDER=
